<svg xmlns="http://www.w3.org/2000/svg" style="display: none;">
  <symbol id="twitter" viewBox="0 0 24 24">
    <!-- SVG path for Twitter icon -->
    <path d="M23.954 4.569c-0.885 0.392-1.83 0.656-2.825 0.775 1.015-0.609 1.793-1.574 2.163-2.723-0.951 0.564-2.005 0.974-3.127 1.195-0.897-0.957-2.178-1.554-3.594-1.554-2.719 0-4.92 2.201-4.92 4.917 0 0.386 0.045 0.762 0.126 1.12-4.09-0.205-7.713-2.164-10.14-5.144-0.424 0.728-0.666 1.577-0.666 2.483 0 1.71 0.87 3.223 2.188 4.107-0.807-0.026-1.566-0.247-2.228-0.616v0.062c0 2.386 1.697 4.374 3.946 4.827-0.413 0.111-0.849 0.171-1.296 0.171-0.314 0-0.621-0.03-0.921-0.086 0.622 1.942 2.422 3.355 4.557 3.394-1.67 1.309-3.778 2.089-6.066 2.089-0.394 0-0.783-0.023-1.166-0.067 2.162 1.386 4.729 2.194 7.488 2.194 8.98 0 13.88-7.433 13.88-13.88 0-0.211-0.004-0.422-0.015-0.632 0.953-0.688 1.78-1.547 2.433-2.525z"/>
  </symbol>
  <!-- More icons can be added in similar fashion -->
</svg>
