<svg xmlns="http://www.w3.org/2000/svg" xmlns:xlink="http://www.w3.org/1999/xlink" width="500" zoomAndPan="magnify" viewBox="0 0 375 374.999991" height="500" preserveAspectRatio="xMidYMid meet" version="1.0"><defs><g/><clipPath id="d5776678c0"><path d="M 136.0625 111.355469 L 240.3125 111.355469 L 240.3125 224.605469 L 136.0625 224.605469 Z M 136.0625 111.355469 " clip-rule="nonzero"/></clipPath><clipPath id="ca8c0205cd"><path d="M 120.363281 100.238281 L 255.824219 100.238281 L 255.824219 235.699219 L 120.363281 235.699219 Z M 120.363281 100.238281 " clip-rule="nonzero"/></clipPath><clipPath id="9a060f264a"><path d="M 119.460938 99.335938 L 256.710938 99.335938 L 256.710938 236.585938 L 119.460938 236.585938 Z M 119.460938 99.335938 " clip-rule="nonzero"/></clipPath></defs><g clip-path="url(#d5776678c0)"><path fill="#ffffff" d="M 239.746094 149.347656 C 238.816406 146.71875 236.332031 144.449219 233.542969 144.449219 L 207.554688 144.449219 L 229.714844 123.34375 C 231.628906 121.480469 232.222656 118.316406 231.214844 115.835938 C 230.207031 113.355469 227.792969 111.414062 225.121094 111.414062 L 180.1875 111.414062 C 178.128906 111.414062 176.191406 112.953125 174.949219 114.585938 L 137.402344 164.234375 C 135.890625 166.222656 135.636719 168.738281 136.746094 170.984375 C 137.855469 173.222656 140.140625 174.476562 142.640625 174.476562 L 167.992188 174.476562 C 168.082031 174.476562 168.171875 175.078125 168.269531 175.21875 L 146.164062 214.585938 C 144.613281 217.335938 145.234375 220.875 147.644531 222.917969 C 148.867188 223.953125 150.382812 224.511719 151.894531 224.511719 C 153.359375 224.511719 154.824219 224.046875 156.027344 223.070312 L 237.675781 156.910156 C 239.847656 155.152344 240.675781 151.976562 239.746094 149.347656 Z M 239.746094 149.347656 " fill-opacity="1" fill-rule="nonzero"/></g><g clip-path="url(#ca8c0205cd)"><path fill="#ffffff" d="M 137.574219 101.0625 L 130.183594 101.0625 L 130.183594 99.335938 L 137.574219 99.335938 Z M 152.359375 101.0625 L 144.96875 101.0625 L 144.96875 99.335938 L 152.359375 99.335938 Z M 167.144531 101.0625 L 159.753906 101.0625 L 159.753906 99.335938 L 167.144531 99.335938 Z M 181.933594 101.0625 L 174.539062 101.0625 L 174.539062 99.335938 L 181.933594 99.335938 Z M 196.71875 101.0625 L 189.324219 101.0625 L 189.324219 99.335938 L 196.71875 99.335938 Z M 211.503906 101.0625 L 204.109375 101.0625 L 204.109375 99.335938 L 211.503906 99.335938 Z M 226.289062 101.0625 L 218.898438 101.0625 L 218.898438 99.335938 L 226.289062 99.335938 Z M 241.074219 101.0625 L 233.683594 101.0625 L 233.683594 99.335938 L 241.074219 99.335938 Z M 255.859375 101.0625 L 248.46875 101.0625 L 248.46875 99.335938 L 255.859375 99.335938 Z M 121.1875 105.128906 L 119.460938 105.128906 L 119.460938 99.335938 L 122.789062 99.335938 L 122.789062 101.0625 L 121.1875 101.0625 Z M 256.722656 114.984375 L 255 114.984375 L 255 107.59375 L 256.722656 107.59375 Z M 121.1875 119.914062 L 119.460938 119.914062 L 119.460938 112.519531 L 121.1875 112.519531 Z M 256.722656 129.769531 L 255 129.769531 L 255 122.378906 L 256.722656 122.378906 Z M 121.1875 134.699219 L 119.460938 134.699219 L 119.460938 127.304688 L 121.1875 127.304688 Z M 256.722656 144.558594 L 255 144.558594 L 255 137.164062 L 256.722656 137.164062 Z M 121.1875 149.484375 L 119.460938 149.484375 L 119.460938 142.09375 L 121.1875 142.09375 Z M 256.722656 159.34375 L 255 159.34375 L 255 151.949219 L 256.722656 151.949219 Z M 121.1875 164.269531 L 119.460938 164.269531 L 119.460938 156.878906 L 121.1875 156.878906 Z M 256.722656 174.128906 L 255 174.128906 L 255 166.734375 L 256.722656 166.734375 Z M 121.1875 179.058594 L 119.460938 179.058594 L 119.460938 171.664062 L 121.1875 171.664062 Z M 256.722656 188.914062 L 255 188.914062 L 255 181.519531 L 256.722656 181.519531 Z M 121.1875 193.84375 L 119.460938 193.84375 L 119.460938 186.449219 L 121.1875 186.449219 Z M 256.722656 203.699219 L 255 203.699219 L 255 196.308594 L 256.722656 196.308594 Z M 121.1875 208.628906 L 119.460938 208.628906 L 119.460938 201.234375 L 121.1875 201.234375 Z M 256.722656 218.484375 L 255 218.484375 L 255 211.09375 L 256.722656 211.09375 Z M 121.1875 223.414062 L 119.460938 223.414062 L 119.460938 216.019531 L 121.1875 216.019531 Z M 256.722656 233.273438 L 255 233.273438 L 255 225.878906 L 256.722656 225.878906 Z M 122.789062 236.597656 L 119.460938 236.597656 L 119.460938 230.808594 L 121.1875 230.808594 L 121.1875 234.875 L 122.789062 234.875 Z M 137.574219 236.597656 L 130.183594 236.597656 L 130.183594 234.875 L 137.574219 234.875 Z M 152.359375 236.597656 L 144.96875 236.597656 L 144.96875 234.875 L 152.359375 234.875 Z M 167.144531 236.597656 L 159.753906 236.597656 L 159.753906 234.875 L 167.144531 234.875 Z M 181.933594 236.597656 L 174.539062 236.597656 L 174.539062 234.875 L 181.933594 234.875 Z M 196.71875 236.597656 L 189.324219 236.597656 L 189.324219 234.875 L 196.71875 234.875 Z M 211.503906 236.597656 L 204.109375 236.597656 L 204.109375 234.875 L 211.503906 234.875 Z M 226.289062 236.597656 L 218.898438 236.597656 L 218.898438 234.875 L 226.289062 234.875 Z M 241.074219 236.597656 L 233.683594 236.597656 L 233.683594 234.875 L 241.074219 234.875 Z M 255.859375 236.597656 L 248.46875 236.597656 L 248.46875 234.875 L 255.859375 234.875 L 255.859375 236.597656 " fill-opacity="1" fill-rule="nonzero"/></g><g clip-path="url(#9a060f264a)"><path fill="#ffffff" d="M 122.460938 99.335938 L 122.460938 117.335938 L 116.460938 117.335938 L 116.460938 99.335938 Z M 122.460938 120.335938 L 122.460938 138.335938 L 116.460938 138.335938 L 116.460938 120.335938 Z M 122.460938 141.335938 L 122.460938 159.335938 L 116.460938 159.335938 L 116.460938 141.335938 Z M 122.460938 162.335938 L 122.460938 180.335938 L 116.460938 180.335938 L 116.460938 162.335938 Z M 122.460938 183.335938 L 122.460938 201.335938 L 116.460938 201.335938 L 116.460938 183.335938 Z M 122.460938 204.335938 L 122.460938 222.335938 L 116.460938 222.335938 L 116.460938 204.335938 Z M 122.460938 225.335938 L 122.460938 236.597656 L 119.460938 236.597656 L 119.460938 233.597656 L 126.199219 233.597656 L 126.199219 239.597656 L 116.460938 239.597656 L 116.460938 225.335938 Z M 129.199219 233.597656 L 147.199219 233.597656 L 147.199219 239.597656 L 129.199219 239.597656 Z M 150.199219 233.597656 L 168.199219 233.597656 L 168.199219 239.597656 L 150.199219 239.597656 Z M 171.199219 233.597656 L 189.199219 233.597656 L 189.199219 239.597656 L 171.199219 239.597656 Z M 192.199219 233.597656 L 210.199219 233.597656 L 210.199219 239.597656 L 192.199219 239.597656 Z M 213.199219 233.597656 L 231.199219 233.597656 L 231.199219 239.597656 L 213.199219 239.597656 Z M 234.199219 233.597656 L 252.199219 233.597656 L 252.199219 239.597656 L 234.199219 239.597656 Z M 255.199219 233.597656 L 256.722656 233.597656 L 256.722656 236.597656 L 253.722656 236.597656 L 253.722656 220.121094 L 259.722656 220.121094 L 259.722656 239.597656 L 255.199219 239.597656 Z M 253.722656 217.121094 L 253.722656 199.121094 L 259.722656 199.121094 L 259.722656 217.121094 Z M 253.722656 196.121094 L 253.722656 178.121094 L 259.722656 178.121094 L 259.722656 196.121094 Z M 253.722656 175.121094 L 253.722656 157.121094 L 259.722656 157.121094 L 259.722656 175.121094 Z M 253.722656 154.121094 L 253.722656 136.121094 L 259.722656 136.121094 L 259.722656 154.121094 Z M 253.722656 133.121094 L 253.722656 115.121094 L 259.722656 115.121094 L 259.722656 133.121094 Z M 253.722656 112.121094 L 253.722656 99.335938 L 256.722656 99.335938 L 256.722656 102.335938 L 251.507812 102.335938 L 251.507812 96.335938 L 259.722656 96.335938 L 259.722656 112.121094 Z M 248.507812 102.335938 L 230.507812 102.335938 L 230.507812 96.335938 L 248.507812 96.335938 Z M 227.507812 102.335938 L 209.507812 102.335938 L 209.507812 96.335938 L 227.507812 96.335938 Z M 206.507812 102.335938 L 188.507812 102.335938 L 188.507812 96.335938 L 206.507812 96.335938 Z M 185.507812 102.335938 L 167.507812 102.335938 L 167.507812 96.335938 L 185.507812 96.335938 Z M 164.507812 102.335938 L 146.507812 102.335938 L 146.507812 96.335938 L 164.507812 96.335938 Z M 143.507812 102.335938 L 125.507812 102.335938 L 125.507812 96.335938 L 143.507812 96.335938 Z M 122.507812 102.335938 L 119.460938 102.335938 L 119.460938 96.335938 L 122.507812 96.335938 Z M 122.507812 102.335938 " fill-opacity="1" fill-rule="nonzero"/></g><g fill="#ffffff" fill-opacity="1"><g transform="translate(118.892437, 265.587098)"><g><path d="M 6.585938 -19.273438 C 9.230469 -20.054688 13.238281 -18.359375 11.773438 -16.695312 L 12.75 -15.945312 L 18.066406 -21.554688 C 17.21875 -23.871094 10.957031 -24.621094 8.804688 -23.675781 C 8.804688 -23.675781 1.402344 -18.945312 1.664062 -15.230469 C 1.859375 -12.132812 10.5 -9.683594 12.195312 -6.328125 C 12.457031 -5.640625 12.390625 -4.859375 12.164062 -4.042969 C 8.414062 -4.628906 4.828125 -6.359375 6.128906 -8.152344 L 5.152344 -8.738281 L 0.390625 -4.273438 C 0.390625 -1.433594 4.238281 0.0976562 7.078125 0.0976562 C 11.675781 0.0976562 18.066406 -4.792969 18.066406 -8.25 C 18.066406 -12 7.792969 -15.488281 6.585938 -19.273438 Z M 6.585938 -19.273438 "/></g></g></g><g fill="#ffffff" fill-opacity="1"><g transform="translate(136.953684, 265.587098)"><g><path d="M 13.5 -17.085938 L 13.5 -18.066406 L 8.835938 -18.066406 L 8.835938 -19.566406 C 8.871094 -22.730469 8.21875 -24.035156 6.261719 -25.46875 L 0.359375 -20.578125 L 0.945312 -19.5 C 2.902344 -20.738281 3.621094 -20.121094 3.683594 -18.066406 L 2.707031 -18.066406 L -0.390625 -15.328125 L -0.390625 -14.25 L 3.683594 -14.25 L 3.683594 -5.707031 C 3.683594 -2.773438 4.792969 -0.878906 6.261719 0 L 13.078125 -5.316406 L 12.328125 -6.359375 C 10.238281 -4.761719 8.835938 -5.347656 8.871094 -7.011719 L 8.835938 -14.25 L 10.828125 -14.25 Z M 13.5 -17.085938 "/></g></g></g><g fill="#ffffff" fill-opacity="1"><g transform="translate(150.059503, 265.587098)"><g><path d="M 16.632812 -5.316406 C 15.097656 -4.207031 14.542969 -5.347656 14.578125 -7.042969 L 14.542969 -12.132812 C 14.445312 -17.382812 10.371094 -18.066406 6.554688 -18.066406 L 0.390625 -13.632812 L 1.042969 -12.621094 C 3.488281 -14.121094 7.433594 -14.347656 8.871094 -12.066406 C 4.46875 -10.792969 1.238281 -8.835938 0.71875 -5.445312 C 0.390625 -3.128906 2.121094 -0.03125 4.792969 0 L 9.621094 -3.523438 C 9.816406 -1.988281 10.890625 0 11.96875 0 L 17.347656 -4.402344 Z M 7.335938 -3.878906 C 4.957031 -5.21875 5.152344 -9 9.359375 -10.53125 L 9.390625 -5.21875 Z M 7.335938 -3.878906 "/></g></g></g><g fill="#ffffff" fill-opacity="1"><g transform="translate(166.621083, 265.587098)"><g><path d="M 5.414062 -13.925781 C 6.457031 -14.609375 8.835938 -12.882812 9.816406 -11.121094 L 14.085938 -14.183594 C 13.140625 -16.695312 10.664062 -18.066406 8.578125 -18.066406 C 6 -18.066406 2.085938 -14.054688 1.140625 -12.230469 C -0.78125 -8.21875 2.476562 0 7.042969 0 L 13.925781 -5.316406 L 13.109375 -6.261719 C 8.347656 -2.675781 4.925781 -8.542969 5.414062 -13.925781 Z M 5.414062 -13.925781 "/></g></g></g><g fill="#ffffff" fill-opacity="1"><g transform="translate(181.096164, 265.587098)"><g><path d="M 12.652344 -12.621094 L 13.304688 -13.53125 C 14.347656 -13.53125 15.164062 -13.140625 17.023438 -11.480469 L 21.035156 -15.261719 C 19.078125 -18.554688 15.066406 -18.882812 13.46875 -16.761719 L 7.695312 -8.835938 L 7.695312 -20.578125 C 7.761719 -23.738281 7.078125 -24.980469 5.121094 -26.445312 L -0.78125 -21.554688 L -0.226562 -20.511719 C 1.695312 -21.6875 2.476562 -21.066406 2.511719 -19.042969 L 2.511719 -5.707031 C 2.511719 -2.804688 3.652344 -0.878906 5.121094 0 L 10.53125 -4.371094 L 9.75 -5.414062 C 8.609375 -4.566406 7.988281 -4.957031 7.828125 -5.96875 L 9.195312 -7.890625 C 10.140625 -5.609375 13.042969 0 15.457031 0 L 20.25 -4.109375 L 19.566406 -5.152344 C 17.152344 -3.523438 14.609375 -9.03125 12.652344 -12.621094 Z M 12.652344 -12.621094 "/></g></g></g><g fill="#ffffff" fill-opacity="1"><g transform="translate(201.732939, 265.587098)"><g><path d="M 7.628906 -5.511719 L 7.628906 -10.042969 L 13.5 -10.042969 L 16.175781 -12.457031 L 16.175781 -13.859375 L 7.628906 -13.859375 L 7.628906 -19.46875 C 9.164062 -19.273438 10.53125 -18.425781 13.273438 -18.425781 L 18.980469 -23.085938 L 18.523438 -23.773438 C 15.816406 -22.175781 13.078125 -24.425781 10.175781 -23.804688 L 7.335938 -21.523438 C 7.011719 -22.632812 6.390625 -23.445312 5.054688 -23.902344 L -0.78125 -18.980469 L -0.261719 -17.933594 C 1.664062 -19.140625 2.445312 -18.523438 2.476562 -16.46875 L 2.511719 -16.46875 L 2.511719 -3.359375 C 2.476562 -1.890625 2.054688 -1.597656 1.5 -0.71875 L 2.28125 0 C 4.859375 -1.628906 7.273438 0 11.804688 0 L 18.035156 -5.578125 L 17.316406 -6.292969 C 14.152344 -4.371094 11.445312 -5.542969 7.628906 -5.511719 Z M 7.628906 -5.511719 "/></g></g></g><g fill="#ffffff" fill-opacity="1"><g transform="translate(220.120205, 265.587098)"><g><path d="M 18.132812 -5.378906 C 16.597656 -4.273438 16.042969 -5.316406 16.042969 -7.011719 L 16.042969 -20.609375 C 16.109375 -23.707031 15.425781 -25.011719 13.46875 -26.445312 L 7.597656 -21.585938 L 8.152344 -20.542969 C 10.109375 -21.71875 10.859375 -21.097656 10.890625 -19.078125 L 10.890625 -18.066406 C 9.359375 -17.804688 7.664062 -17.085938 5.804688 -15.816406 C 2.96875 -13.925781 0.78125 -10.632812 0.78125 -7.371094 C 0.78125 -4.238281 2.121094 -1.859375 5.804688 0 L 10.925781 -4.957031 C 11.085938 -2.476562 12.132812 -0.816406 13.46875 0 L 18.882812 -4.371094 Z M 6.425781 -13.890625 C 7.925781 -14.835938 9.683594 -14.707031 10.890625 -13.304688 L 10.890625 -7.011719 L 8.28125 -4.53125 C 5.640625 -6.457031 3.78125 -11.902344 6.425781 -13.890625 Z M 6.425781 -13.890625 "/></g></g></g><g fill="#ffffff" fill-opacity="1"><g transform="translate(238.605273, 265.587098)"><g><path d="M 18.328125 -5.347656 C 16.792969 -4.238281 16.273438 -5.316406 16.304688 -6.980469 L 16.273438 -12.195312 C 16.304688 -15.359375 15.652344 -16.632812 13.695312 -18.066406 L 7.890625 -13.175781 L 8.414062 -12.132812 C 10.304688 -13.335938 11.085938 -12.683594 11.152344 -10.695312 L 11.152344 -6.816406 C 9.78125 -5.804688 8.96875 -5.414062 8.445312 -5.445312 C 7.792969 -5.476562 7.628906 -6.128906 7.628906 -6.980469 L 7.597656 -12.195312 C 7.628906 -15.359375 6.980469 -16.632812 5.054688 -18.066406 L -0.78125 -13.175781 L -0.261719 -12.132812 C 1.664062 -13.335938 2.414062 -12.683594 2.476562 -10.695312 L 2.476562 -5.640625 C 2.476562 -2.773438 3.585938 -0.878906 5.054688 0 L 11.152344 -4.988281 C 11.316406 -2.511719 12.390625 -0.847656 13.695312 0 L 19.078125 -4.335938 Z M 18.328125 -5.347656 "/></g></g></g><g fill="#000000" fill-opacity="1"><g transform="translate(173.303502, 182.978278)"><g><path d="M 10.777344 -31.535156 C 15.101562 -32.816406 21.664062 -30.042969 19.261719 -27.320312 L 20.863281 -26.09375 L 29.5625 -35.269531 C 28.175781 -39.058594 17.929688 -40.285156 14.40625 -38.738281 C 14.40625 -38.738281 2.292969 -31.003906 2.722656 -24.917969 C 3.042969 -19.851562 17.183594 -15.847656 19.957031 -10.351562 C 20.382812 -9.230469 20.277344 -7.949219 19.902344 -6.617188 C 13.765625 -7.578125 7.898438 -10.40625 10.03125 -13.339844 L 8.429688 -14.300781 L 0.640625 -6.988281 C 0.640625 -2.347656 6.9375 0.160156 11.578125 0.160156 C 19.101562 0.160156 29.5625 -7.84375 29.5625 -13.5 C 29.5625 -19.636719 12.753906 -25.347656 10.777344 -31.535156 Z M 10.777344 -31.535156 "/></g></g></g></svg>