<svg xmlns="http://www.w3.org/2000/svg" xmlns:xlink="http://www.w3.org/1999/xlink" width="500" zoomAndPan="magnify" viewBox="0 0 375 374.999991" height="500" preserveAspectRatio="xMidYMid meet" version="1.0"><defs><g/><clipPath id="94b686c723"><path d="M 135.46875 111.355469 L 239.425781 111.355469 L 239.425781 224.535156 L 135.46875 224.535156 Z M 135.46875 111.355469 " clip-rule="nonzero"/></clipPath><clipPath id="c047e0631f"><path d="M 119.875 100.34375 L 255.125 100.34375 L 255.125 235.59375 L 119.875 235.59375 Z M 119.875 100.34375 " clip-rule="nonzero"/></clipPath><clipPath id="61027b614c"><path d="M 118.867188 99.335938 L 256.125 99.335938 L 256.125 236.59375 L 118.867188 236.59375 Z M 118.867188 99.335938 " clip-rule="nonzero"/></clipPath></defs><g clip-path="url(#94b686c723)"><path fill="#231f20" d="M 239.152344 149.351562 C 238.222656 146.71875 235.738281 144.449219 232.949219 144.449219 L 206.960938 144.449219 L 229.121094 123.347656 C 231.035156 121.480469 231.628906 118.316406 230.621094 115.835938 C 229.609375 113.359375 227.199219 111.417969 224.527344 111.417969 L 179.59375 111.417969 C 177.535156 111.417969 175.597656 112.953125 174.355469 114.589844 L 136.808594 164.234375 C 135.296875 166.222656 135.042969 168.742188 136.152344 170.984375 C 137.261719 173.226562 139.546875 174.480469 142.046875 174.480469 L 167.402344 174.480469 C 167.488281 174.480469 167.578125 175.078125 167.675781 175.21875 L 145.570312 214.585938 C 144.019531 217.335938 144.640625 220.875 147.050781 222.917969 C 148.273438 223.953125 149.789062 224.511719 151.300781 224.511719 C 152.765625 224.511719 154.230469 224.046875 155.433594 223.070312 L 237.082031 156.910156 C 239.253906 155.15625 240.082031 151.980469 239.152344 149.351562 Z M 239.152344 149.351562 " fill-opacity="1" fill-rule="nonzero"/></g><g clip-path="url(#c047e0631f)"><path fill="#ffffff" d="M 136.980469 101.0625 L 129.589844 101.0625 L 129.589844 99.335938 L 136.980469 99.335938 Z M 151.765625 101.0625 L 144.375 101.0625 L 144.375 99.335938 L 151.765625 99.335938 Z M 166.550781 101.0625 L 159.160156 101.0625 L 159.160156 99.335938 L 166.550781 99.335938 Z M 181.335938 101.0625 L 173.945312 101.0625 L 173.945312 99.335938 L 181.335938 99.335938 Z M 196.121094 101.0625 L 188.730469 101.0625 L 188.730469 99.335938 L 196.121094 99.335938 Z M 210.90625 101.0625 L 203.515625 101.0625 L 203.515625 99.335938 L 210.90625 99.335938 Z M 225.691406 101.0625 L 218.300781 101.0625 L 218.300781 99.335938 L 225.691406 99.335938 Z M 240.476562 101.0625 L 233.085938 101.0625 L 233.085938 99.335938 L 240.476562 99.335938 Z M 255.261719 101.0625 L 247.871094 101.0625 L 247.871094 99.335938 L 255.261719 99.335938 Z M 120.59375 105.128906 L 118.867188 105.128906 L 118.867188 99.335938 L 122.195312 99.335938 L 122.195312 101.0625 L 120.59375 101.0625 Z M 256.125 114.984375 L 254.398438 114.984375 L 254.398438 107.59375 L 256.125 107.59375 Z M 120.59375 119.914062 L 118.867188 119.914062 L 118.867188 112.519531 L 120.59375 112.519531 Z M 256.125 129.769531 L 254.398438 129.769531 L 254.398438 122.378906 L 256.125 122.378906 Z M 120.59375 134.699219 L 118.867188 134.699219 L 118.867188 127.304688 L 120.59375 127.304688 Z M 256.125 144.554688 L 254.398438 144.554688 L 254.398438 137.164062 L 256.125 137.164062 Z M 120.59375 149.484375 L 118.867188 149.484375 L 118.867188 142.089844 L 120.59375 142.089844 Z M 256.125 159.339844 L 254.398438 159.339844 L 254.398438 151.949219 L 256.125 151.949219 Z M 120.59375 164.269531 L 118.867188 164.269531 L 118.867188 156.875 L 120.59375 156.875 Z M 256.125 174.125 L 254.398438 174.125 L 254.398438 166.734375 L 256.125 166.734375 Z M 120.59375 179.054688 L 118.867188 179.054688 L 118.867188 171.660156 L 120.59375 171.660156 Z M 256.125 188.910156 L 254.398438 188.910156 L 254.398438 181.519531 L 256.125 181.519531 Z M 120.59375 193.839844 L 118.867188 193.839844 L 118.867188 186.445312 L 120.59375 186.445312 Z M 256.125 203.695312 L 254.398438 203.695312 L 254.398438 196.304688 L 256.125 196.304688 Z M 120.59375 208.625 L 118.867188 208.625 L 118.867188 201.230469 L 120.59375 201.230469 Z M 256.125 218.480469 L 254.398438 218.480469 L 254.398438 211.089844 L 256.125 211.089844 Z M 120.59375 223.410156 L 118.867188 223.410156 L 118.867188 216.015625 L 120.59375 216.015625 Z M 256.125 233.265625 L 254.398438 233.265625 L 254.398438 225.875 L 256.125 225.875 Z M 122.195312 236.59375 L 118.867188 236.59375 L 118.867188 230.800781 L 120.59375 230.800781 L 120.59375 234.867188 L 122.195312 234.867188 Z M 136.980469 236.59375 L 129.589844 236.59375 L 129.589844 234.867188 L 136.980469 234.867188 Z M 151.765625 236.59375 L 144.375 236.59375 L 144.375 234.867188 L 151.765625 234.867188 Z M 166.550781 236.59375 L 159.160156 236.59375 L 159.160156 234.867188 L 166.550781 234.867188 Z M 181.335938 236.59375 L 173.945312 236.59375 L 173.945312 234.867188 L 181.335938 234.867188 Z M 196.121094 236.59375 L 188.730469 236.59375 L 188.730469 234.867188 L 196.121094 234.867188 Z M 210.90625 236.59375 L 203.515625 236.59375 L 203.515625 234.867188 L 210.90625 234.867188 Z M 225.691406 236.59375 L 218.300781 236.59375 L 218.300781 234.867188 L 225.691406 234.867188 Z M 240.476562 236.59375 L 233.085938 236.59375 L 233.085938 234.867188 L 240.476562 234.867188 Z M 255.261719 236.59375 L 247.871094 236.59375 L 247.871094 234.867188 L 255.261719 234.867188 L 255.261719 236.59375 " fill-opacity="1" fill-rule="nonzero"/></g><g clip-path="url(#61027b614c)"><path fill="#000000" d="M 121.867188 99.335938 L 121.867188 117.335938 L 115.867188 117.335938 L 115.867188 99.335938 Z M 121.867188 120.335938 L 121.867188 138.335938 L 115.867188 138.335938 L 115.867188 120.335938 Z M 121.867188 141.335938 L 121.867188 159.335938 L 115.867188 159.335938 L 115.867188 141.335938 Z M 121.867188 162.335938 L 121.867188 180.335938 L 115.867188 180.335938 L 115.867188 162.335938 Z M 121.867188 183.335938 L 121.867188 201.335938 L 115.867188 201.335938 L 115.867188 183.335938 Z M 121.867188 204.335938 L 121.867188 222.335938 L 115.867188 222.335938 L 115.867188 204.335938 Z M 121.867188 225.335938 L 121.867188 236.59375 L 118.867188 236.59375 L 118.867188 233.59375 L 125.613281 233.59375 L 125.613281 239.59375 L 115.867188 239.59375 L 115.867188 225.335938 Z M 128.613281 233.59375 L 146.613281 233.59375 L 146.613281 239.59375 L 128.613281 239.59375 Z M 149.613281 233.59375 L 167.613281 233.59375 L 167.613281 239.59375 L 149.613281 239.59375 Z M 170.613281 233.59375 L 188.613281 233.59375 L 188.613281 239.59375 L 170.613281 239.59375 Z M 191.613281 233.59375 L 209.613281 233.59375 L 209.613281 239.59375 L 191.613281 239.59375 Z M 212.613281 233.59375 L 230.613281 233.59375 L 230.613281 239.59375 L 212.613281 239.59375 Z M 233.613281 233.59375 L 251.613281 233.59375 L 251.613281 239.59375 L 233.613281 239.59375 Z M 254.613281 233.59375 L 256.125 233.59375 L 256.125 236.59375 L 253.125 236.59375 L 253.125 220.105469 L 259.125 220.105469 L 259.125 239.59375 L 254.613281 239.59375 Z M 253.125 217.105469 L 253.125 199.105469 L 259.125 199.105469 L 259.125 217.105469 Z M 253.125 196.105469 L 253.125 178.105469 L 259.125 178.105469 L 259.125 196.105469 Z M 253.125 175.105469 L 253.125 157.105469 L 259.125 157.105469 L 259.125 175.105469 Z M 253.125 154.105469 L 253.125 136.105469 L 259.125 136.105469 L 259.125 154.105469 Z M 253.125 133.105469 L 253.125 115.105469 L 259.125 115.105469 L 259.125 133.105469 Z M 253.125 112.105469 L 253.125 99.335938 L 256.125 99.335938 L 256.125 102.335938 L 250.890625 102.335938 L 250.890625 96.335938 L 259.125 96.335938 L 259.125 112.105469 Z M 247.890625 102.335938 L 229.890625 102.335938 L 229.890625 96.335938 L 247.890625 96.335938 Z M 226.890625 102.335938 L 208.890625 102.335938 L 208.890625 96.335938 L 226.890625 96.335938 Z M 205.890625 102.335938 L 187.890625 102.335938 L 187.890625 96.335938 L 205.890625 96.335938 Z M 184.890625 102.335938 L 166.890625 102.335938 L 166.890625 96.335938 L 184.890625 96.335938 Z M 163.890625 102.335938 L 145.890625 102.335938 L 145.890625 96.335938 L 163.890625 96.335938 Z M 142.890625 102.335938 L 124.890625 102.335938 L 124.890625 96.335938 L 142.890625 96.335938 Z M 121.890625 102.335938 L 118.867188 102.335938 L 118.867188 96.335938 L 121.890625 96.335938 Z M 121.890625 102.335938 " fill-opacity="1" fill-rule="nonzero"/></g><g fill="#000000" fill-opacity="1"><g transform="translate(118.275772, 265.582083)"><g><path d="M 6.585938 -19.273438 C 9.230469 -20.054688 13.242188 -18.359375 11.773438 -16.699219 L 12.75 -15.945312 L 18.066406 -21.554688 C 17.21875 -23.871094 10.957031 -24.621094 8.804688 -23.675781 C 8.804688 -23.675781 1.402344 -18.949219 1.664062 -15.230469 C 1.859375 -12.132812 10.5 -9.6875 12.195312 -6.328125 C 12.457031 -5.640625 12.390625 -4.859375 12.164062 -4.042969 C 8.414062 -4.632812 4.828125 -6.359375 6.132812 -8.152344 L 5.152344 -8.738281 L 0.390625 -4.273438 C 0.390625 -1.433594 4.238281 0.0976562 7.078125 0.0976562 C 11.675781 0.0976562 18.066406 -4.792969 18.066406 -8.25 C 18.066406 -12 7.792969 -15.492188 6.585938 -19.273438 Z M 6.585938 -19.273438 "/></g></g></g><g fill="#000000" fill-opacity="1"><g transform="translate(136.341604, 265.582083)"><g><path d="M 13.5 -17.089844 L 13.5 -18.066406 L 8.835938 -18.066406 L 8.835938 -19.566406 C 8.871094 -22.730469 8.21875 -24.035156 6.261719 -25.46875 L 0.359375 -20.578125 L 0.945312 -19.5 C 2.902344 -20.742188 3.621094 -20.121094 3.683594 -18.066406 L 2.707031 -18.066406 L -0.390625 -15.328125 L -0.390625 -14.25 L 3.683594 -14.25 L 3.683594 -5.707031 C 3.683594 -2.773438 4.792969 -0.878906 6.261719 0 L 13.078125 -5.316406 L 12.328125 -6.359375 C 10.238281 -4.761719 8.835938 -5.347656 8.871094 -7.011719 L 8.835938 -14.25 L 10.828125 -14.25 Z M 13.5 -17.089844 "/></g></g></g><g fill="#000000" fill-opacity="1"><g transform="translate(149.450749, 265.582083)"><g><path d="M 16.632812 -5.316406 C 15.097656 -4.207031 14.542969 -5.347656 14.578125 -7.042969 L 14.542969 -12.132812 C 14.445312 -17.382812 10.371094 -18.066406 6.554688 -18.066406 L 0.390625 -13.632812 L 1.042969 -12.621094 C 3.488281 -14.121094 7.433594 -14.347656 8.871094 -12.066406 C 4.46875 -10.792969 1.238281 -8.835938 0.71875 -5.445312 C 0.390625 -3.128906 2.121094 -0.03125 4.792969 0 L 9.621094 -3.523438 C 9.816406 -1.988281 10.890625 0 11.96875 0 L 17.347656 -4.402344 Z M 7.335938 -3.878906 C 4.957031 -5.21875 5.152344 -9 9.359375 -10.535156 L 9.390625 -5.21875 Z M 7.335938 -3.878906 "/></g></g></g><g fill="#000000" fill-opacity="1"><g transform="translate(166.016533, 265.582083)"><g><path d="M 5.414062 -13.925781 C 6.457031 -14.609375 8.835938 -12.882812 9.816406 -11.121094 L 14.089844 -14.1875 C 13.144531 -16.699219 10.664062 -18.066406 8.578125 -18.066406 C 6 -18.066406 2.085938 -14.054688 1.140625 -12.230469 C -0.78125 -8.21875 2.476562 0 7.042969 0 L 13.925781 -5.316406 L 13.109375 -6.261719 C 8.347656 -2.675781 4.925781 -8.542969 5.414062 -13.925781 Z M 5.414062 -13.925781 "/></g></g></g><g fill="#000000" fill-opacity="1"><g transform="translate(180.495289, 265.582083)"><g><path d="M 12.652344 -12.621094 L 13.304688 -13.535156 C 14.347656 -13.535156 15.164062 -13.144531 17.023438 -11.480469 L 21.035156 -15.261719 C 19.078125 -18.554688 15.066406 -18.882812 13.46875 -16.761719 L 7.695312 -8.835938 L 7.695312 -20.578125 C 7.761719 -23.742188 7.078125 -24.980469 5.121094 -26.449219 L -0.78125 -21.554688 L -0.226562 -20.511719 C 1.695312 -21.6875 2.476562 -21.066406 2.511719 -19.046875 L 2.511719 -5.707031 C 2.511719 -2.804688 3.652344 -0.878906 5.121094 0 L 10.535156 -4.371094 L 9.75 -5.414062 C 8.609375 -4.566406 7.988281 -4.957031 7.828125 -5.96875 L 9.195312 -7.890625 C 10.140625 -5.609375 13.042969 0 15.457031 0 L 20.253906 -4.109375 L 19.566406 -5.152344 C 17.152344 -3.523438 14.609375 -9.035156 12.652344 -12.621094 Z M 12.652344 -12.621094 "/></g></g></g><g fill="#000000" fill-opacity="1"><g transform="translate(201.137301, 265.582083)"><g><path d="M 7.632812 -5.511719 L 7.632812 -10.042969 L 13.5 -10.042969 L 16.175781 -12.457031 L 16.175781 -13.859375 L 7.632812 -13.859375 L 7.632812 -19.46875 C 9.164062 -19.273438 10.535156 -18.425781 13.273438 -18.425781 L 18.980469 -23.089844 L 18.523438 -23.773438 C 15.816406 -22.175781 13.078125 -24.425781 10.175781 -23.808594 L 7.335938 -21.523438 C 7.011719 -22.632812 6.390625 -23.449219 5.054688 -23.90625 L -0.78125 -18.980469 L -0.261719 -17.9375 C 1.664062 -19.144531 2.445312 -18.523438 2.476562 -16.46875 L 2.511719 -16.46875 L 2.511719 -3.359375 C 2.476562 -1.890625 2.054688 -1.597656 1.5 -0.71875 L 2.28125 0 C 4.859375 -1.628906 7.273438 0 11.804688 0 L 18.035156 -5.578125 L 17.316406 -6.292969 C 14.152344 -4.371094 11.445312 -5.542969 7.632812 -5.511719 Z M 7.632812 -5.511719 "/></g></g></g><g fill="#000000" fill-opacity="1"><g transform="translate(219.529224, 265.582083)"><g><path d="M 18.132812 -5.382812 C 16.597656 -4.273438 16.046875 -5.316406 16.046875 -7.011719 L 16.046875 -20.609375 C 16.109375 -23.707031 15.425781 -25.011719 13.46875 -26.449219 L 7.597656 -21.589844 L 8.152344 -20.546875 C 10.109375 -21.71875 10.859375 -21.101562 10.890625 -19.078125 L 10.890625 -18.066406 C 9.359375 -17.804688 7.664062 -17.089844 5.804688 -15.816406 C 2.96875 -13.925781 0.78125 -10.632812 0.78125 -7.371094 C 0.78125 -4.238281 2.121094 -1.859375 5.804688 0 L 10.925781 -4.957031 C 11.089844 -2.476562 12.132812 -0.816406 13.46875 0 L 18.882812 -4.371094 Z M 6.425781 -13.894531 C 7.925781 -14.839844 9.6875 -14.707031 10.890625 -13.304688 L 10.890625 -7.011719 L 8.285156 -4.53125 C 5.640625 -6.457031 3.78125 -11.902344 6.425781 -13.894531 Z M 6.425781 -13.894531 "/></g></g></g><g fill="#000000" fill-opacity="1"><g transform="translate(238.01899, 265.582083)"><g><path d="M 18.328125 -5.347656 C 16.796875 -4.238281 16.273438 -5.316406 16.304688 -6.980469 L 16.273438 -12.195312 C 16.304688 -15.359375 15.652344 -16.632812 13.695312 -18.066406 L 7.890625 -13.175781 L 8.414062 -12.132812 C 10.304688 -13.339844 11.089844 -12.6875 11.152344 -10.695312 L 11.152344 -6.816406 C 9.785156 -5.804688 8.96875 -5.414062 8.445312 -5.445312 C 7.792969 -5.480469 7.632812 -6.132812 7.632812 -6.980469 L 7.597656 -12.195312 C 7.632812 -15.359375 6.980469 -16.632812 5.054688 -18.066406 L -0.78125 -13.175781 L -0.261719 -12.132812 C 1.664062 -13.339844 2.414062 -12.6875 2.476562 -10.695312 L 2.476562 -5.640625 C 2.476562 -2.773438 3.585938 -0.878906 5.054688 0 L 11.152344 -4.988281 C 11.316406 -2.511719 12.390625 -0.847656 13.695312 0 L 19.078125 -4.335938 Z M 18.328125 -5.347656 "/></g></g></g><g fill="#ffffff" fill-opacity="1"><g transform="translate(172.710269, 182.978258)"><g><path d="M 10.777344 -31.535156 C 15.101562 -32.816406 21.664062 -30.042969 19.261719 -27.320312 L 20.863281 -26.09375 L 29.5625 -35.269531 C 28.175781 -39.058594 17.929688 -40.285156 14.40625 -38.738281 C 14.40625 -38.738281 2.292969 -31.003906 2.722656 -24.917969 C 3.042969 -19.851562 17.183594 -15.847656 19.957031 -10.351562 C 20.382812 -9.230469 20.277344 -7.949219 19.902344 -6.617188 C 13.765625 -7.578125 7.898438 -10.40625 10.03125 -13.339844 L 8.429688 -14.300781 L 0.640625 -6.988281 C 0.640625 -2.347656 6.9375 0.160156 11.578125 0.160156 C 19.101562 0.160156 29.5625 -7.84375 29.5625 -13.5 C 29.5625 -19.636719 12.753906 -25.347656 10.777344 -31.535156 Z M 10.777344 -31.535156 "/></g></g></g></svg>